<svg width="90" height="90" viewBox="-11 -10 90 90" xmlns="http://www.w3.org/2000/svg">
  <rect x="-11" y="-10" width="90" height="90" rx="10" ry="10" fill="#333333" />

  <g id="svgGroup" stroke-linecap="round" fill-rule="evenodd" font-size="9pt" stroke="#fd9a00" stroke-width="0.25mm" fill="#fd9a00" style="stroke:#fd9a00;stroke-width:0.25mm;fill:#fd9a00">
    <path d="M 18 70 L 2.5 70 Q 1.2 70 0.6 69.525 Q 0 69.05 0 68.25 Q 0 67.6 0.375 67.2 Q 0.75 66.8 1.8 66.35 L 3.75 65.7 Q 5.15 65.1 5.9 64.025 Q 6.65 62.95 7.5 60.2 L 25.1 7.65 Q 25.7 5.85 25.35 5.05 Q 25 4.25 23.25 3.8 Q 21.9 3.45 21.35 2.95 Q 20.8 2.45 20.8 1.75 Q 20.8 0.9 21.425 0.45 Q 22.05 0 23.3 0 L 43.95 0 Q 45.25 0 45.85 0.45 Q 46.45 0.9 46.45 1.7 Q 46.45 2.45 45.925 2.95 Q 45.4 3.45 44.1 3.75 Q 42.65 4.1 42.4 4.7 Q 42.15 5.3 42.6 6.75 L 61.15 61.6 Q 61.8 63.7 62.75 64.7 Q 63.7 65.7 65.45 66.1 Q 66.85 66.5 67.3 66.975 Q 67.75 67.45 67.75 68.2 Q 67.75 69 67.125 69.5 Q 66.5 70 65.2 70 L 45.35 70 Q 44.1 70 43.475 69.5 Q 42.85 69 42.85 68.2 Q 42.85 67.5 43.3 67.05 Q 43.75 66.6 44.8 66.35 L 48.3 65.8 Q 49.55 65.5 49.6 64.675 Q 49.65 63.85 49.05 62.05 L 29.9 4.6 L 31.35 3.9 L 12.8 59.65 Q 12.25 61.5 12.25 62.65 Q 12.25 63.8 12.975 64.525 Q 13.7 65.25 15.25 65.75 L 18.55 66.4 Q 19.55 66.65 20 67.075 Q 20.45 67.5 20.45 68.2 Q 20.45 69 19.875 69.5 Q 19.3 70 18 70 Z M 15.25 46.4 L 15.7 42.15 L 45.5 42.15 L 45.85 46.4 L 15.25 46.4 Z" vector-effect="non-scaling-stroke"/>
  </g>
</svg>
